<?xml version="1.0" encoding="UTF-8" standalone="no"?>
<svg
   xmlns:dc="http://purl.org/dc/elements/1.1/"
   xmlns:cc="http://creativecommons.org/ns#"
   xmlns:rdf="http://www.w3.org/1999/02/22-rdf-syntax-ns#"
   xmlns:svg="http://www.w3.org/2000/svg"
   xmlns="http://www.w3.org/2000/svg"
   xmlns:sodipodi="http://sodipodi.sourceforge.net/DTD/sodipodi-0.dtd"
   xmlns:inkscape="http://www.inkscape.org/namespaces/inkscape"
   class="icon"
   height="96"
   viewBox="0 0 64.000001 192"
   version="1.1"
   id="svg3725"
   sodipodi:docname="default_person_64w.svg"
   width="64"
   inkscape:version="0.92.4 (5da689c313, 2019-01-14)">
  <metadata
     id="metadata3731">
    <rdf:RDF>
      <cc:Work
         rdf:about="">
        <dc:format>image/svg+xml</dc:format>
        <dc:type
           rdf:resource="http://purl.org/dc/dcmitype/StillImage" />
        <dc:title></dc:title>
      </cc:Work>
    </rdf:RDF>
  </metadata>
  <defs
     id="defs3729" />
  <sodipodi:namedview
     pagecolor="#ffffff"
     bordercolor="#666666"
     borderopacity="1"
     objecttolerance="10"
     gridtolerance="10"
     guidetolerance="10"
     inkscape:pageopacity="0"
     inkscape:pageshadow="2"
     inkscape:window-width="1920"
     inkscape:window-height="1017"
     id="namedview3727"
     showgrid="false"
     inkscape:zoom="5.6474939"
     inkscape:cx="47.320881"
     inkscape:cy="46.273375"
     inkscape:window-x="-8"
     inkscape:window-y="-8"
     inkscape:window-maximized="1"
     inkscape:current-layer="svg3725" />
  <path
     d="m 46.5371,115.50126 c 0,-1.95365 0.02936,-4.10633 0.05889,-6.37698 2.355378,-2.57291 7.743305,-9.20053 9.870497,-18.23151 2.17873,-1.00999 4.011502,-3.17742 5.152386,-6.2074 1.597248,-4.27589 1.715016,-10.15892 -1.398505,-13.97774 a 1.4132259,1.4154665 0 0 0 0.03681,-0.19168 c 0.588841,-5.35223 2.134561,-19.5585 -6.411035,-28.876994 A 30.38436,30.432531 0 0 0 31.926416,31.789664 30.38436,30.432531 0 0 0 10.014052,41.638956 C 1.4610901,50.95745 3.0215267,65.16372 3.5956562,70.51595 c 0,0.0737 0.014745,0.11799 0.022066,0.19168 -3.1135201,3.81882 -2.9957509,9.70921 -1.3985041,13.97774 1.155602,3.0226 2.958942,5.19741 5.1302938,6.2074 2.1345676,9.03835 7.4930521,15.6586 9.8410621,18.23151 0.02939,2.28539 -0.03681,4.20217 -0.03681,6.14843 C 17.153764,136.72588 -32,132.00767 -32,154.03586 V 160 H 96 v -5.96414 c 0,-22.20513 -49.462912,-17.49429 -49.462912,-38.5346 z"
     id="path3723"
     inkscape:connector-curvature="0"
     style="fill:#2c2c2c;stroke-width:0.13668098" />
</svg>
