<?xml version="1.0" encoding="UTF-8" standalone="no"?>
<svg
   xmlns:dc="http://purl.org/dc/elements/1.1/"
   xmlns:cc="http://creativecommons.org/ns#"
   xmlns:rdf="http://www.w3.org/1999/02/22-rdf-syntax-ns#"
   xmlns:svg="http://www.w3.org/2000/svg"
   xmlns="http://www.w3.org/2000/svg"
   xmlns:sodipodi="http://sodipodi.sourceforge.net/DTD/sodipodi-0.dtd"
   xmlns:inkscape="http://www.inkscape.org/namespaces/inkscape"
   class="icon"
   height="138"
   viewBox="0 0 92.000001 276"
   version="1.1"
   id="svg3725"
   sodipodi:docname="default_person.svg"
   width="92"
   inkscape:version="0.92.4 (5da689c313, 2019-01-14)">
  <metadata
     id="metadata3731">
    <rdf:RDF>
      <cc:Work
         rdf:about="">
        <dc:format>image/svg+xml</dc:format>
        <dc:type
           rdf:resource="http://purl.org/dc/dcmitype/StillImage" />
        <dc:title></dc:title>
      </cc:Work>
    </rdf:RDF>
  </metadata>
  <defs
     id="defs3729" />
  <sodipodi:namedview
     pagecolor="#ffffff"
     bordercolor="#666666"
     borderopacity="1"
     objecttolerance="10"
     gridtolerance="10"
     guidetolerance="10"
     inkscape:pageopacity="0"
     inkscape:pageshadow="2"
     inkscape:window-width="1920"
     inkscape:window-height="1017"
     id="namedview3727"
     showgrid="false"
     inkscape:zoom="2.823747"
     inkscape:cx="-55.260121"
     inkscape:cy="38.955667"
     inkscape:window-x="-8"
     inkscape:window-y="-8"
     inkscape:window-maximized="1"
     inkscape:current-layer="svg3725" />
  <path
     d="m 66.897089,164.03307 c 0,-2.80837 0.04221,-5.90285 0.08465,-9.1669 3.385855,-3.69856 11.131,-13.22578 14.188837,-26.2078 3.131926,-1.45187 5.766534,-4.56755 7.406554,-8.92315 2.29605,-6.14659 2.46534,-14.60345 -2.010349,-20.093 a 2.0315123,2.0347331 0 0 0 0.05291,-0.27553 C 87.466153,91.67285 89.68813,71.25133 77.403831,57.856 A 43.677518,43.746764 0 0 0 45.89423,43.697646 43.677518,43.746764 0 0 0 14.395205,57.856 C 2.100324,71.25133 4.343452,91.67285 5.168763,99.36669 c 0,0.10602 0.0212,0.16956 0.03172,0.27553 -4.47568505,5.48955 -4.30639205,13.957 -2.010349,20.093 1.661178,4.345 4.253479,7.47128 7.374797,8.92315 3.068441,12.99263 10.771262,22.50924 14.146526,26.2078 0.04224,3.28524 -0.05292,6.04061 -0.05292,8.83836 0,30.83893 -70.658535,24.0565 -70.658535,55.72203 v 8.57345 H 138 v -8.57345 c 0,-31.91988 -71.102932,-25.14803 -71.102932,-55.39349 z"
     id="path3723"
     inkscape:connector-curvature="0"
     style="fill:#2c2c2c;stroke-width:0.19647892" />
</svg>
