<?xml version="1.0" encoding="UTF-8" standalone="no"?>
<svg
   xmlns:dc="http://purl.org/dc/elements/1.1/"
   xmlns:cc="http://creativecommons.org/ns#"
   xmlns:rdf="http://www.w3.org/1999/02/22-rdf-syntax-ns#"
   xmlns:svg="http://www.w3.org/2000/svg"
   xmlns="http://www.w3.org/2000/svg"
   xmlns:sodipodi="http://sodipodi.sourceforge.net/DTD/sodipodi-0.dtd"
   xmlns:inkscape="http://www.inkscape.org/namespaces/inkscape"
   aria-hidden="true"
   focusable="false"
   data-prefix="fas"
   data-icon="film"
   class="svg-inline--fa fa-film fa-w-16"
   role="img"
   viewBox="0 0 92 135"
   version="1.1"
   id="svg4"
   sodipodi:docname="default_title_92w.svg"
   width="92"
   height="135"
   inkscape:version="0.92.4 (5da689c313, 2019-01-14)"
   inkscape:export-filename="C:\Users\Leon\Vue Projects\bacon\src\assets\images\default_title_92w.png"
   inkscape:export-xdpi="96.002197"
   inkscape:export-ydpi="96.002197">
  <metadata
     id="metadata10">
    <rdf:RDF>
      <cc:Work
         rdf:about="">
        <dc:format>image/svg+xml</dc:format>
        <dc:type
           rdf:resource="http://purl.org/dc/dcmitype/StillImage" />
        <dc:title></dc:title>
      </cc:Work>
    </rdf:RDF>
  </metadata>
  <defs
     id="defs8" />
  <sodipodi:namedview
     pagecolor="#ffffff"
     bordercolor="#666666"
     borderopacity="1"
     objecttolerance="10"
     gridtolerance="10"
     guidetolerance="10"
     inkscape:pageopacity="1"
     inkscape:pageshadow="2"
     inkscape:window-width="1920"
     inkscape:window-height="1017"
     id="namedview6"
     showgrid="false"
     inkscape:zoom="2.6074563"
     inkscape:cx="-28.91428"
     inkscape:cy="61.934855"
     inkscape:window-x="-8"
     inkscape:window-y="-8"
     inkscape:window-maximized="1"
     inkscape:current-layer="svg4" />
  <path
     d="M 73.6875,44.500004 H 72.75 v 2.34375 c 0,0.773439 -0.632811,1.40625 -1.40625,1.40625 h -4.6875 c -0.773439,0 -1.40625,-0.632811 -1.40625,-1.40625 v -2.34375 h -37.5 v 2.34375 c 0,0.773439 -0.632811,1.40625 -1.40625,1.40625 h -4.6875 c -0.773439,0 -1.40625,-0.632811 -1.40625,-1.40625 v -2.34375 h -0.9375 c -1.558591,0 -2.8125,1.253909 -2.8125,2.8125 v 39.375 c 0,1.558594 1.253909,2.812497 2.8125,2.812497 H 20.25 v -2.343747 c 0,-0.773437 0.632811,-1.40625 1.40625,-1.40625 h 4.6875 c 0.773439,0 1.40625,0.632813 1.40625,1.40625 v 2.343747 h 37.5 v -2.343747 c 0,-0.773437 0.632811,-1.40625 1.40625,-1.40625 h 4.6875 c 0.773439,0 1.40625,0.632813 1.40625,1.40625 v 2.343747 h 0.9375 c 1.558591,0 2.8125,-1.253903 2.8125,-2.812497 v -39.375 c 0,-1.558591 -1.253909,-2.8125 -2.8125,-2.8125 z M 27.75,80.593754 c 0,0.773437 -0.632811,1.40625 -1.40625,1.40625 h -4.6875 c -0.773439,0 -1.40625,-0.632813 -1.40625,-1.40625 v -4.6875 c 0,-0.773439 0.632811,-1.40625 1.40625,-1.40625 h 4.6875 c 0.773439,0 1.40625,0.632811 1.40625,1.40625 z m 0,-11.25 c 0,0.773439 -0.632811,1.40625 -1.40625,1.40625 h -4.6875 c -0.773439,0 -1.40625,-0.632811 -1.40625,-1.40625 v -4.6875 c 0,-0.773439 0.632811,-1.40625 1.40625,-1.40625 h 4.6875 c 0.773439,0 1.40625,0.632811 1.40625,1.40625 z m 0,-11.25 c 0,0.773439 -0.632811,1.40625 -1.40625,1.40625 h -4.6875 c -0.773439,0 -1.40625,-0.632811 -1.40625,-1.40625 v -4.6875 c 0,-0.773439 0.632811,-1.40625 1.40625,-1.40625 h 4.6875 c 0.773439,0 1.40625,0.632811 1.40625,1.40625 z m 31.875,24.375 c 0,0.773437 -0.632811,1.40625 -1.40625,1.40625 h -23.4375 c -0.773439,0 -1.40625,-0.632813 -1.40625,-1.40625 v -11.25 c 0,-0.773439 0.632811,-1.40625 1.40625,-1.40625 h 23.4375 c 0.773439,0 1.40625,0.632811 1.40625,1.40625 z m 0,-19.6875 c 0,0.773439 -0.632811,1.40625 -1.40625,1.40625 h -23.4375 c -0.773439,0 -1.40625,-0.632811 -1.40625,-1.40625 v -11.25 c 0,-0.773439 0.632811,-1.40625 1.40625,-1.40625 h 23.4375 c 0.773439,0 1.40625,0.632811 1.40625,1.40625 z m 13.125,17.8125 c 0,0.773437 -0.632811,1.40625 -1.40625,1.40625 h -4.6875 c -0.773439,0 -1.40625,-0.632813 -1.40625,-1.40625 v -4.6875 c 0,-0.773439 0.632811,-1.40625 1.40625,-1.40625 h 4.6875 c 0.773439,0 1.40625,0.632811 1.40625,1.40625 z m 0,-11.25 c 0,0.773439 -0.632811,1.40625 -1.40625,1.40625 h -4.6875 c -0.773439,0 -1.40625,-0.632811 -1.40625,-1.40625 v -4.6875 c 0,-0.773439 0.632811,-1.40625 1.40625,-1.40625 h 4.6875 c 0.773439,0 1.40625,0.632811 1.40625,1.40625 z m 0,-11.25 c 0,0.773439 -0.632811,1.40625 -1.40625,1.40625 h -4.6875 c -0.773439,0 -1.40625,-0.632811 -1.40625,-1.40625 v -4.6875 c 0,-0.773439 0.632811,-1.40625 1.40625,-1.40625 h 4.6875 c 0.773439,0 1.40625,0.632811 1.40625,1.40625 z"
     id="path2"
     inkscape:connector-curvature="0"
     style="opacity:1;fill:#cccccc;fill-opacity:1;stroke-width:0.1171875" />
</svg>
